<?xml version="1.0" encoding="UTF-8"?>
<svg shape-rendering="crispEdges" version="1.1" viewBox="0 0 20 20" xmlns="http://www.w3.org/2000/svg">
<rect x="12" width="1" height="1" fill="#fff"/>
<rect x="13" width="1" height="1" fill="#fff"/>
<rect x="14" width="1" height="1" fill="#fff"/>
<rect x="15" width="1" height="1" fill="#fff"/>
<rect x="16" width="1" height="1" fill="#fff"/>
<rect x="17" width="1" height="1" fill="#fff"/>
<rect x="12" y="1" width="1" height="1" fill="#fff"/>
<rect x="18" y="1" width="1" height="1" fill="#fff"/>
<rect x="6" y="2" width="1" height="1" fill="#fff"/>
<rect x="13" y="2" width="1" height="1" fill="#fff"/>
<rect x="19" y="2" width="1" height="1" fill="#fff"/>
<rect x="5" y="3" width="1" height="1" fill="#fff"/>
<rect x="6" y="3" width="1" height="1" fill="#fff"/>
<rect x="13" y="3" width="1" height="1" fill="#fff"/>
<rect x="19" y="3" width="1" height="1" fill="#fff"/>
<rect x="4" y="4" width="1" height="1" fill="#fff"/>
<rect x="5" y="4" width="1" height="1" fill="#fff"/>
<rect x="6" y="4" width="1" height="1" fill="#fff"/>
<rect x="14" y="4" width="1" height="1" fill="#fff"/>
<rect x="19" y="4" width="1" height="1" fill="#fff"/>
<rect x="14" y="5" width="1" height="1" fill="#fff"/>
<rect x="18" y="5" width="1" height="1" fill="#fff"/>
<rect x="1" y="6" width="1" height="1" fill="#fff"/>
<rect x="8" y="6" width="1" height="1" fill="#fff"/>
<rect x="15" y="6" width="1" height="1" fill="#fff"/>
<rect x="16" y="6" width="1" height="1" fill="#fff"/>
<rect x="17" y="6" width="1" height="1" fill="#fff"/>
<rect y="7" width="1" height="1" fill="#fff"/>
<rect x="2" y="7" width="1" height="1" fill="#fff"/>
<rect x="3" y="7" width="1" height="1" fill="#fff"/>
<rect y="8" width="1" height="1" fill="#fff"/>
<rect x="4" y="8" width="1" height="1" fill="#fff"/>
<rect x="10" y="8" width="1" height="1" fill="#fff"/>
<rect y="9" width="1" height="1" fill="#fff"/>
<rect x="5" y="9" width="1" height="1" fill="#fff"/>
<rect x="10" y="9" width="1" height="1" fill="#fff"/>
<rect x="1" y="10" width="1" height="1" fill="#fff"/>
<rect x="2" y="10" width="1" height="1" fill="#fff"/>
<rect x="3" y="10" width="1" height="1" fill="#fff"/>
<rect x="4" y="10" width="1" height="1" fill="#fff"/>
<rect x="5" y="10" width="1" height="1" fill="#fff"/>
<rect x="12" y="11" width="1" height="1" fill="#fff"/>
<rect x="13" y="11" width="1" height="1" fill="#fff"/>
<rect x="14" y="11" width="1" height="1" fill="#fff"/>
<rect x="15" y="11" width="1" height="1" fill="#fff"/>
<rect x="16" y="11" width="1" height="1" fill="#fff"/>
<rect x="12" y="12" width="1" height="1" fill="#fff"/>
<rect x="17" y="12" width="1" height="1" fill="#fff"/>
<rect x="18" y="12" width="1" height="1" fill="#fff"/>
<rect x="10" y="13" width="1" height="1" fill="#fff"/>
<rect x="11" y="13" width="1" height="1" fill="#fff"/>
<rect x="18" y="13" width="1" height="1" fill="#fff"/>
<rect x="9" y="14" width="1" height="1" fill="#fff"/>
<rect x="18" y="14" width="1" height="1" fill="#fff"/>
<rect x="9" y="15" width="1" height="1" fill="#fff"/>
<rect x="18" y="15" width="1" height="1" fill="#fff"/>
<rect x="8" y="16" width="1" height="1" fill="#fff"/>
<rect x="18" y="16" width="1" height="1" fill="#fff"/>
<rect x="8" y="17" width="1" height="1" fill="#fff"/>
<rect x="17" y="17" width="1" height="1" fill="#fff"/>
<rect x="8" y="18" width="1" height="1" fill="#fff"/>
<rect x="12" y="18" width="1" height="1" fill="#fff"/>
<rect x="13" y="18" width="1" height="1" fill="#fff"/>
<rect x="14" y="18" width="1" height="1" fill="#fff"/>
<rect x="15" y="18" width="1" height="1" fill="#fff"/>
<rect x="16" y="18" width="1" height="1" fill="#fff"/>
<rect x="8" y="19" width="1" height="1" fill="#fff"/>
<rect x="9" y="19" width="1" height="1" fill="#fff"/>
<rect x="10" y="19" width="1" height="1" fill="#fff"/>
<rect x="11" y="19" width="1" height="1" fill="#fff"/>
</svg>
